<svg width="26" height="26" viewBox="0 0 26 26" fill="none" xmlns="http://www.w3.org/2000/svg">
<path d="M3.25 3.25H5.41667L5.85 5.41667M7.58333 14.0833H18.4167L22.75 5.41667H5.85M7.58333 14.0833L5.85 5.41667M7.58333 14.0833L5.09937 16.5673C4.4169 17.2498 4.90025 18.4167 5.8654 18.4167H18.4167M18.4167 18.4167C17.2201 18.4167 16.25 19.3867 16.25 20.5833C16.25 21.78 17.2201 22.75 18.4167 22.75C19.6133 22.75 20.5833 21.78 20.5833 20.5833C20.5833 19.3867 19.6133 18.4167 18.4167 18.4167ZM9.75 20.5833C9.75 21.78 8.77995 22.75 7.58333 22.75C6.38672 22.75 5.41667 21.78 5.41667 20.5833C5.41667 19.3867 6.38672 18.4167 7.58333 18.4167C8.77995 18.4167 9.75 19.3867 9.75 20.5833Z" stroke="#101010" stroke-width="2.16667" stroke-linecap="round" stroke-linejoin="round"/>
</svg>
