<svg width="21" height="20" viewBox="0 0 21 20" fill="none" xmlns="http://www.w3.org/2000/svg">
<path d="M18.122 16.4605L14.4466 12.7852C15.3315 11.6072 15.8091 10.1733 15.8075 8.7C15.8075 4.93672 12.7458 1.875 8.98253 1.875C5.21925 1.875 2.15753 4.93672 2.15753 8.7C2.15753 12.4633 5.21925 15.525 8.98253 15.525C10.4558 15.5266 11.8897 15.0489 13.0677 14.1641L16.7431 17.8395C16.9291 18.0058 17.1718 18.0945 17.4212 18.0876C17.6707 18.0806 17.908 17.9784 18.0844 17.8019C18.2609 17.6255 18.3631 17.3881 18.3701 17.1387C18.3771 16.8893 18.2883 16.6466 18.122 16.4605ZM4.10753 8.7C4.10753 7.73582 4.39345 6.79328 4.92912 5.9916C5.46479 5.18991 6.22616 4.56506 7.11695 4.19609C8.00774 3.82711 8.98794 3.73057 9.9336 3.91867C10.8793 4.10677 11.7479 4.57107 12.4297 5.25285C13.1115 5.93464 13.5758 6.80328 13.7639 7.74893C13.952 8.69459 13.8554 9.67479 13.4864 10.5656C13.1175 11.4564 12.4926 12.2177 11.6909 12.7534C10.8892 13.2891 9.94672 13.575 8.98253 13.575C7.69008 13.5734 6.451 13.0593 5.5371 12.1454C4.6232 11.2315 4.10908 9.99245 4.10753 8.7Z" fill="#1C1C1C"/>
</svg>
