<svg width="217" height="31" viewBox="0 0 217 31" fill="none" xmlns="http://www.w3.org/2000/svg">
<path d="M0.707408 30V1.48148H6.16667L21.9741 22.8296H20.8741C20.684 21.4444 20.521 20.0728 20.3852 18.7148C20.2494 17.3296 20.1543 15.863 20.1 14.3148C20.0728 12.7667 20.0593 11.042 20.0593 9.14074V1.48148H26.0074V30H20.4667L4.37407 8.52963H5.84074C6.03086 10.3222 6.18025 11.8025 6.28889 12.9704C6.39753 14.1383 6.47901 15.116 6.53333 15.9037C6.58766 16.6642 6.6284 17.3432 6.65556 17.9407C6.68272 18.5383 6.6963 19.163 6.6963 19.8148V30H0.707408ZM33.4114 30V1.48148H52.641V6.85926H39.4003V24.6222H52.9262V30H33.4114ZM36.2633 18.063V12.8481H50.6855V18.063H36.2633ZM68.5204 30.4074C65.8586 30.4074 63.5772 29.9321 61.6759 28.9815C59.8019 28.0037 58.1858 26.5914 56.8278 24.7444L60.6574 20.4259C61.9883 22.2728 63.3056 23.5358 64.6093 24.2148C65.9401 24.8667 67.3661 25.1926 68.887 25.1926C69.729 25.1926 70.4759 25.0704 71.1278 24.8259C71.8068 24.5815 72.3364 24.242 72.7167 23.8074C73.1241 23.3728 73.3278 22.8704 73.3278 22.3C73.3278 21.8654 73.2327 21.4716 73.0426 21.1185C72.8525 20.7383 72.5809 20.4123 72.2278 20.1407C71.8747 19.842 71.4537 19.5839 70.9648 19.3667C70.4759 19.1222 69.9327 18.9185 69.3352 18.7556C68.7377 18.5926 68.0858 18.4432 67.3796 18.3074C65.8586 17.9815 64.5278 17.5605 63.387 17.0444C62.2463 16.5284 61.2957 15.9037 60.5352 15.1704C59.7747 14.437 59.2043 13.5951 58.8241 12.6444C58.471 11.6667 58.2944 10.5802 58.2944 9.38518C58.2944 7.70123 58.7698 6.23457 59.7204 4.98518C60.671 3.70864 61.934 2.71728 63.5093 2.01111C65.0846 1.27778 66.8228 0.911109 68.7241 0.911109C71.3043 0.911109 73.4228 1.34568 75.0796 2.21481C76.7636 3.08395 78.108 4.30617 79.113 5.88148L75.2019 9.71111C74.3599 8.54321 73.3957 7.66049 72.3093 7.06296C71.2228 6.46543 70.0549 6.16666 68.8056 6.16666C67.9364 6.16666 67.1624 6.28889 66.4833 6.53333C65.8315 6.75062 65.329 7.09012 64.9759 7.55185C64.6228 7.98642 64.4463 8.50247 64.4463 9.1C64.4463 9.58889 64.5685 10.0235 64.813 10.4037C65.0574 10.7839 65.3969 11.1235 65.8315 11.4222C66.2932 11.6938 66.85 11.9383 67.5019 12.1556C68.1537 12.3728 68.8735 12.5494 69.6611 12.6852C71.1549 12.9839 72.4994 13.3914 73.6945 13.9074C74.8895 14.3963 75.908 14.9938 76.75 15.7C77.6191 16.4062 78.2846 17.221 78.7463 18.1444C79.208 19.0679 79.4389 20.1 79.4389 21.2407C79.4389 23.1691 78.9772 24.8123 78.0537 26.1704C77.1303 27.5284 75.8537 28.5741 74.2241 29.3074C72.5945 30.0407 70.6932 30.4074 68.5204 30.4074ZM90.8813 30V6.98148H82.6517V1.48148H105.548V6.98148H96.9924V30H90.8813Z" fill="#101010"/>
<path d="M121.992 30.4074C119.901 30.4074 117.959 30.0407 116.166 29.3074C114.401 28.5741 112.866 27.5556 111.563 26.2519C110.286 24.921 109.281 23.3593 108.548 21.5667C107.842 19.7741 107.489 17.8049 107.489 15.6593C107.489 13.5407 107.842 11.5852 108.548 9.79259C109.281 8 110.286 6.43827 111.563 5.10741C112.866 3.77654 114.401 2.74444 116.166 2.01111C117.959 1.27778 119.901 0.911109 121.992 0.911109C124.084 0.911109 125.998 1.27778 127.737 2.01111C129.502 2.74444 131.037 3.77654 132.34 5.10741C133.644 6.43827 134.649 8.01358 135.355 9.83333C136.089 11.6259 136.455 13.5679 136.455 15.6593C136.455 17.7778 136.089 19.7333 135.355 21.5259C134.649 23.3185 133.644 24.8802 132.34 26.2111C131.037 27.542 129.502 28.5741 127.737 29.3074C125.998 30.0407 124.084 30.4074 121.992 30.4074ZM121.992 24.6222C123.187 24.6222 124.287 24.4049 125.292 23.9704C126.297 23.5086 127.166 22.884 127.9 22.0963C128.66 21.2815 129.244 20.3309 129.652 19.2444C130.059 18.158 130.263 16.963 130.263 15.6593C130.263 14.3827 130.059 13.2012 129.652 12.1148C129.244 11.0284 128.66 10.0778 127.9 9.26296C127.166 8.44815 126.297 7.82346 125.292 7.38889C124.287 6.92716 123.187 6.69629 121.992 6.69629C120.797 6.69629 119.684 6.92716 118.652 7.38889C117.647 7.82346 116.764 8.44815 116.003 9.26296C115.27 10.0506 114.7 11.0012 114.292 12.1148C113.885 13.2012 113.681 14.3963 113.681 15.7C113.681 17.4111 114.034 18.9457 114.74 20.3037C115.474 21.6346 116.452 22.6938 117.674 23.4815C118.923 24.242 120.363 24.6222 121.992 24.6222ZM141.987 30V1.48148H154.617C156.409 1.48148 158.012 1.87531 159.424 2.66296C160.864 3.45062 162.004 4.53704 162.846 5.92222C163.688 7.28025 164.109 8.84197 164.109 10.6074C164.109 12.3185 163.688 13.8667 162.846 15.2519C162.004 16.637 160.864 17.737 159.424 18.5519C158.012 19.3667 156.409 19.7741 154.617 19.7741H147.854V30H141.987ZM158.202 30L150.95 17.0852L157.183 16.0667L165.25 30.0407L158.202 30ZM147.854 14.763H154.372C155.106 14.763 155.744 14.6 156.287 14.2741C156.857 13.921 157.292 13.4457 157.591 12.8481C157.917 12.2506 158.08 11.5716 158.08 10.8111C158.08 10.0235 157.89 9.33086 157.509 8.73333C157.129 8.10864 156.599 7.63333 155.92 7.30741C155.241 6.95432 154.454 6.77778 153.557 6.77778H147.854V14.763ZM169.82 30V24.7444H174.587V6.73703H169.82V1.48148H185.424V6.73703H180.698V24.7444H185.424V30H169.82ZM188.736 30L199.94 1.48148H205.399L216.521 30H210.288L204.502 14.6407C204.34 14.179 204.136 13.6086 203.891 12.9296C203.674 12.2506 203.443 11.5309 203.199 10.7704C202.954 10.0099 202.723 9.29012 202.506 8.61111C202.316 7.90494 202.153 7.33457 202.017 6.9L203.117 6.85926C202.954 7.45679 202.764 8.09506 202.547 8.77407C202.357 9.42592 202.14 10.1049 201.895 10.8111C201.678 11.5173 201.447 12.1963 201.202 12.8481C200.985 13.5 200.768 14.1247 200.551 14.7222L194.806 30H188.736ZM193.951 24.0111L195.988 19.0407H208.984L211.062 24.0111H193.951Z" fill="#EEB50C"/>
</svg>
