<svg width="425" height="59" viewBox="0 0 425 59" fill="none" xmlns="http://www.w3.org/2000/svg">
<path d="M0.28 58V2H11L42.04 43.92H39.88C39.5067 41.2 39.1867 38.5067 38.92 35.84C38.6533 33.12 38.4667 30.24 38.36 27.2C38.3067 24.16 38.28 20.7733 38.28 17.04V2H49.96V58H39.08L7.48 15.84H10.36C10.7333 19.36 11.0267 22.2667 11.24 24.56C11.4533 26.8533 11.6133 28.7733 11.72 30.32C11.8267 31.8133 11.9067 33.1467 11.96 34.32C12.0133 35.4933 12.04 36.72 12.04 38V58H0.28ZM64.4988 58V2H102.259V12.56H76.2588V47.44H102.819V58H64.4988ZM70.0988 34.56V24.32H98.4188V34.56H70.0988ZM133.44 58.8C128.213 58.8 123.733 57.8667 120 56C116.32 54.08 113.147 51.3067 110.48 47.68L118 39.2C120.613 42.8267 123.2 45.3067 125.76 46.64C128.373 47.92 131.173 48.56 134.16 48.56C135.813 48.56 137.28 48.32 138.56 47.84C139.893 47.36 140.933 46.6933 141.68 45.84C142.48 44.9867 142.88 44 142.88 42.88C142.88 42.0267 142.693 41.2533 142.32 40.56C141.947 39.8133 141.413 39.1733 140.72 38.64C140.027 38.0533 139.2 37.5467 138.24 37.12C137.28 36.64 136.213 36.24 135.04 35.92C133.867 35.6 132.587 35.3067 131.2 35.04C128.213 34.4 125.6 33.5733 123.36 32.56C121.12 31.5467 119.253 30.32 117.76 28.88C116.267 27.44 115.147 25.7867 114.4 23.92C113.707 22 113.36 19.8667 113.36 17.52C113.36 14.2133 114.293 11.3333 116.16 8.88C118.027 6.37333 120.507 4.42666 123.6 3.04C126.693 1.6 130.107 0.879996 133.84 0.879996C138.907 0.879996 143.067 1.73333 146.32 3.44C149.627 5.14666 152.267 7.54666 154.24 10.64L146.56 18.16C144.907 15.8667 143.013 14.1333 140.88 12.96C138.747 11.7867 136.453 11.2 134 11.2C132.293 11.2 130.773 11.44 129.44 11.92C128.16 12.3467 127.173 13.0133 126.48 13.92C125.787 14.7733 125.44 15.7867 125.44 16.96C125.44 17.92 125.68 18.7733 126.16 19.52C126.64 20.2667 127.307 20.9333 128.16 21.52C129.067 22.0533 130.16 22.5333 131.44 22.96C132.72 23.3867 134.133 23.7333 135.68 24C138.613 24.5867 141.253 25.3867 143.6 26.4C145.947 27.36 147.947 28.5333 149.6 29.92C151.307 31.3067 152.613 32.9067 153.52 34.72C154.427 36.5333 154.88 38.56 154.88 40.8C154.88 44.5867 153.973 47.8133 152.16 50.48C150.347 53.1467 147.84 55.2 144.64 56.64C141.44 58.08 137.707 58.8 133.44 58.8ZM177.349 58V12.8H161.189V2H206.149V12.8H189.349V58H177.349Z" fill="#101010"/>
<path d="M238.439 58.8C234.333 58.8 230.519 58.08 226.999 56.64C223.533 55.2 220.519 53.2 217.959 50.64C215.453 48.0267 213.479 44.96 212.039 41.44C210.653 37.92 209.959 34.0533 209.959 29.84C209.959 25.68 210.653 21.84 212.039 18.32C213.479 14.8 215.453 11.7333 217.959 9.12C220.519 6.50667 223.533 4.48 226.999 3.04C230.519 1.6 234.333 0.879996 238.439 0.879996C242.546 0.879996 246.306 1.6 249.719 3.04C253.186 4.48 256.199 6.50667 258.759 9.12C261.319 11.7333 263.293 14.8267 264.679 18.4C266.119 21.92 266.839 25.7333 266.839 29.84C266.839 34 266.119 37.84 264.679 41.36C263.293 44.88 261.319 47.9467 258.759 50.56C256.199 53.1733 253.186 55.2 249.719 56.64C246.306 58.08 242.546 58.8 238.439 58.8ZM238.439 47.44C240.786 47.44 242.946 47.0133 244.919 46.16C246.893 45.2533 248.599 44.0267 250.039 42.48C251.533 40.88 252.679 39.0133 253.479 36.88C254.279 34.7467 254.679 32.4 254.679 29.84C254.679 27.3333 254.279 25.0133 253.479 22.88C252.679 20.7467 251.533 18.88 250.039 17.28C248.599 15.68 246.893 14.4533 244.919 13.6C242.946 12.6933 240.786 12.24 238.439 12.24C236.093 12.24 233.906 12.6933 231.879 13.6C229.906 14.4533 228.173 15.68 226.679 17.28C225.239 18.8267 224.119 20.6933 223.319 22.88C222.519 25.0133 222.119 27.36 222.119 29.92C222.119 33.28 222.813 36.2933 224.199 38.96C225.639 41.5733 227.559 43.6533 229.959 45.2C232.413 46.6933 235.239 47.44 238.439 47.44ZM277.702 58V2H302.502C306.022 2 309.169 2.77333 311.942 4.32C314.769 5.86667 317.009 8 318.662 10.72C320.315 13.3867 321.142 16.4533 321.142 19.92C321.142 23.28 320.315 26.32 318.662 29.04C317.009 31.76 314.769 33.92 311.942 35.52C309.169 37.12 306.022 37.92 302.502 37.92H289.222V58H277.702ZM309.542 58L295.302 32.64L307.542 30.64L323.382 58.08L309.542 58ZM289.222 28.08H302.022C303.462 28.08 304.715 27.76 305.782 27.12C306.902 26.4267 307.755 25.4933 308.342 24.32C308.982 23.1467 309.302 21.8133 309.302 20.32C309.302 18.7733 308.929 17.4133 308.182 16.24C307.435 15.0133 306.395 14.08 305.062 13.44C303.729 12.7467 302.182 12.4 300.422 12.4H289.222V28.08ZM332.356 58V47.68H341.716V12.32H332.356V2H362.996V12.32H353.716V47.68H362.996V58H332.356ZM369.499 58L391.499 2H402.219L424.059 58H411.819L400.459 27.84C400.139 26.9333 399.739 25.8133 399.259 24.48C398.833 23.1467 398.379 21.7333 397.899 20.24C397.419 18.7467 396.966 17.3333 396.539 16C396.166 14.6133 395.846 13.4933 395.579 12.64L397.739 12.56C397.419 13.7333 397.046 14.9867 396.619 16.32C396.246 17.6 395.819 18.9333 395.339 20.32C394.913 21.7067 394.459 23.04 393.979 24.32C393.553 25.6 393.126 26.8267 392.699 28L381.419 58H369.499ZM379.739 46.24L383.739 36.48H409.259L413.339 46.24H379.739Z" fill="#EEB50C"/>
</svg>
