<svg width="35" height="36" viewBox="0 0 35 36" fill="none" xmlns="http://www.w3.org/2000/svg">
<path d="M17.5142 3.71863C25.5686 3.71863 32.0976 10.2476 32.0976 18.302C32.0976 26.3563 25.5686 32.8853 17.5142 32.8853C9.45987 32.8853 2.93091 26.3563 2.93091 18.302C2.93091 10.2476 9.45987 3.71863 17.5142 3.71863ZM23.9922 12.4686C23.4365 12.4788 22.5834 12.7705 18.4811 14.4549C15.6016 15.657 12.7301 16.8781 9.86674 18.1182C9.16674 18.3938 8.80216 18.6622 8.76862 18.9247C8.70445 19.4293 9.43945 19.5853 10.364 19.8828C11.118 20.1249 12.133 20.4078 12.6609 20.4195C13.1392 20.4297 13.673 20.2343 14.2622 19.8361C18.2872 17.1528 20.3624 15.798 20.4936 15.7688C20.5855 15.7484 20.7124 15.7222 20.7999 15.798C20.8859 15.8738 20.8772 16.0168 20.8669 16.0561C20.794 16.3638 17.0155 19.7574 16.7982 19.9805L16.6932 20.0855C15.8911 20.8774 15.0817 21.3951 16.4788 22.3036C17.7417 23.1247 18.4767 23.6482 19.7747 24.4911C20.6059 25.0278 21.2578 25.6651 22.1153 25.5878C22.5105 25.5513 22.9174 25.1853 23.1259 24.0915C23.6144 21.5103 24.5769 15.9132 24.7986 13.6061C24.812 13.4148 24.8037 13.2225 24.7738 13.033C24.7558 12.88 24.6808 12.7394 24.5638 12.6393C24.3874 12.4963 24.1132 12.4672 23.9922 12.4686Z" fill="#EEB50C"/>
</svg>
