<svg width="35" height="36" viewBox="0 0 35 36" fill="none" xmlns="http://www.w3.org/2000/svg">
<path fill-rule="evenodd" clip-rule="evenodd" d="M33.1338 9.82544C33.3772 9.05435 33.1338 8.4938 32.0571 8.4938H28.4771C27.5741 8.4938 27.1571 8.98462 26.9138 9.50962C26.9138 9.50962 25.0722 13.994 22.5005 16.9013C21.6665 17.7421 21.2844 18.0224 20.8325 18.0224C20.5892 18.0224 20.2761 17.7421 20.2761 16.9717V9.78921C20.2761 8.87866 19.9985 8.45825 19.2336 8.45825H13.6035C13.0471 8.45825 12.6998 8.87866 12.6998 9.29907C12.6998 10.1748 13.9856 10.3853 14.1244 12.8374V18.1653C14.1244 19.3212 13.9193 19.5325 13.4641 19.5325C12.2479 19.5325 9.29414 15.0132 7.52227 9.86372C7.17773 8.8438 6.82773 8.45825 5.92402 8.45825H2.30986C1.26738 8.45825 1.09375 8.94839 1.09375 9.47407C1.09375 10.4202 2.30986 15.1841 6.75801 21.4896C9.71182 25.7962 13.9166 28.1109 17.7044 28.1109C19.9985 28.1109 20.2761 27.5852 20.2761 26.7095V23.4515C20.2761 22.4008 20.4846 22.2258 21.2146 22.2258C21.7355 22.2258 22.6741 22.5054 24.7939 24.5726C27.2262 27.0247 27.6432 28.1458 28.9987 28.1458H32.578C33.6205 28.1458 34.1072 27.6201 33.829 26.6042C33.5166 25.5884 32.3347 24.1173 30.8055 22.366C29.9715 21.3857 28.7205 20.2995 28.3384 19.7738C27.8175 19.0731 27.9562 18.7928 28.3384 18.1625C28.3035 18.1625 32.6826 11.9268 33.1338 9.82271" fill="white"/>
</svg>
