<svg width="240" height="33" viewBox="0 0 240 33" fill="none" xmlns="http://www.w3.org/2000/svg">
<path d="M0 32.3489V0.634292H6.07108L23.65 24.3749H22.4268C22.2153 22.8345 22.0341 21.3092 21.8831 19.799C21.7321 18.2586 21.6263 16.6275 21.5659 14.9059C21.5357 13.1842 21.5206 11.2662 21.5206 9.15193V0.634292H28.1354V32.3489H21.9737L4.07759 8.47233H5.70863C5.92006 10.4658 6.08619 12.112 6.207 13.4108C6.32782 14.7095 6.41843 15.7969 6.47884 16.6728C6.53925 17.5185 6.58456 18.2737 6.61476 18.9382C6.64497 19.6027 6.66007 20.2974 6.66007 21.0223V32.3489H0Z" fill="white"/>
<path d="M36.3692 32.3489V0.634292H57.7539V6.61476H43.0292V26.3684H58.071V32.3489H36.3692ZM39.5406 19.0741V13.2748H55.5792V19.0741H39.5406Z" fill="white"/>
<path d="M75.4128 32.802C72.4528 32.802 69.9156 32.2734 67.8013 31.2162C65.7172 30.1289 63.92 28.5583 62.4098 26.5044L66.6686 21.7019C68.1487 23.7558 69.6136 25.1603 71.0634 25.9154C72.5434 26.6403 74.1291 27.0027 75.8206 27.0027C76.7569 27.0027 77.5875 26.8668 78.3124 26.595C79.0676 26.3231 79.6565 25.9456 80.0794 25.4623C80.5325 24.979 80.759 24.4203 80.759 23.786C80.759 23.3027 80.6533 22.8647 80.4419 22.4721C80.2304 22.0492 79.9284 21.6868 79.5357 21.3847C79.1431 21.0525 78.6749 20.7655 78.1312 20.5239C77.5875 20.252 76.9834 20.0255 76.319 19.8443C75.6545 19.6631 74.9296 19.4969 74.1442 19.3459C72.4528 18.9835 70.9728 18.5153 69.7042 17.9414C68.4356 17.3675 67.3785 16.6728 66.5327 15.8573C65.687 15.0418 65.0527 14.1055 64.6299 13.0483C64.2372 11.9609 64.0409 10.7528 64.0409 9.42377C64.0409 7.5511 64.5694 5.92006 65.6266 4.53066C66.6838 3.11105 68.0883 2.00859 69.8401 1.22328C71.592 0.407759 73.525 0 75.6394 0C78.5088 0 80.8647 0.48327 82.7072 1.44981C84.5799 2.41635 86.075 3.77555 87.1925 5.52741L82.8431 9.78622C81.9068 8.48744 80.8345 7.50579 79.6263 6.8413C78.4182 6.1768 77.1194 5.84455 75.73 5.84455C74.7634 5.84455 73.9026 5.98047 73.1475 6.25231C72.4226 6.49395 71.8638 6.8715 71.4711 7.38498C71.0785 7.86825 70.8822 8.44213 70.8822 9.10662C70.8822 9.6503 71.0181 10.1336 71.2899 10.5564C71.5618 10.9793 71.9393 11.3569 72.4226 11.6891C72.9361 11.9911 73.5553 12.263 74.2802 12.5046C75.0051 12.7463 75.8055 12.9426 76.6814 13.0936C78.3426 13.4259 79.8378 13.8789 81.1668 14.4528C82.4958 14.9965 83.6284 15.661 84.5648 16.4463C85.5313 17.2316 86.2713 18.1377 86.7848 19.1647C87.2983 20.1916 87.555 21.3394 87.555 22.608C87.555 24.7525 87.0415 26.5799 86.0146 28.0901C84.9876 29.6003 83.568 30.7632 81.7557 31.5787C79.9435 32.3942 77.8292 32.802 75.4128 32.802Z" fill="white"/>
<path d="M100.28 32.3489V6.75068H91.1278V0.634292H116.59V6.75068H107.076V32.3489H100.28Z" fill="white"/>
<path d="M134.877 32.802C132.552 32.802 130.392 32.3942 128.399 31.5787C126.435 30.7632 124.729 29.6305 123.279 28.1807C121.859 26.7007 120.742 24.9639 119.926 22.9704C119.141 20.977 118.748 18.7871 118.748 16.401C118.748 14.045 119.141 11.8703 119.926 9.87684C120.742 7.88335 121.859 6.14659 123.279 4.66658C124.729 3.18656 126.435 2.0388 128.399 1.22328C130.392 0.407759 132.552 0 134.877 0C137.203 0 139.333 0.407759 141.266 1.22328C143.229 2.0388 144.935 3.18656 146.385 4.66658C147.835 6.14659 148.953 7.89845 149.738 9.92214C150.553 11.9156 150.961 14.0752 150.961 16.401C150.961 18.7569 150.553 20.9316 149.738 22.9251C148.953 24.9186 147.835 26.6554 146.385 28.1354C144.935 29.6154 143.229 30.7632 141.266 31.5787C139.333 32.3942 137.203 32.802 134.877 32.802ZM134.877 26.3684C136.206 26.3684 137.43 26.1268 138.547 25.6435C139.665 25.1301 140.631 24.4354 141.447 23.5594C142.293 22.6533 142.942 21.5961 143.395 20.388C143.848 19.1798 144.075 17.8508 144.075 16.401C144.075 14.9814 143.848 13.6675 143.395 12.4593C142.942 11.2511 142.293 10.194 141.447 9.28785C140.631 8.38172 139.665 7.68702 138.547 7.20375C137.43 6.69027 136.206 6.43354 134.877 6.43354C133.548 6.43354 132.31 6.69027 131.162 7.20375C130.045 7.68702 129.063 8.38172 128.217 9.28785C127.402 10.1638 126.767 11.2209 126.314 12.4593C125.861 13.6675 125.635 14.9965 125.635 16.4463C125.635 18.3492 126.027 20.0557 126.813 21.5659C127.628 23.046 128.716 24.2239 130.075 25.0999C131.464 25.9456 133.065 26.3684 134.877 26.3684Z" fill="#EEB50C"/>
<path d="M157.113 32.3489V0.634292H171.158C173.152 0.634292 174.934 1.07226 176.504 1.94819C178.105 2.82411 179.374 4.03229 180.31 5.57271C181.246 7.08293 181.714 8.81968 181.714 10.783C181.714 12.6858 181.246 14.4075 180.31 15.9479C179.374 17.4883 178.105 18.7116 176.504 19.6178C174.934 20.5239 173.152 20.9769 171.158 20.9769H163.637V32.3489H157.113ZM175.145 32.3489L167.08 17.9867L174.012 16.8541L182.983 32.3942L175.145 32.3489ZM163.637 15.4042H170.886C171.702 15.4042 172.412 15.223 173.016 14.8606C173.65 14.4679 174.133 13.9393 174.465 13.2748C174.828 12.6103 175.009 11.8552 175.009 11.0095C175.009 10.1336 174.798 9.36336 174.375 8.69887C173.952 8.00416 173.363 7.47559 172.608 7.11313C171.853 6.72048 170.977 6.52415 169.98 6.52415H163.637V15.4042Z" fill="#EEB50C"/>
<path d="M188.065 32.3489V26.5044H193.366V6.47884H188.065V0.634292H205.418V6.47884H200.162V26.5044H205.418V32.3489H188.065Z" fill="#EEB50C"/>
<path d="M209.101 32.3489L221.56 0.634292H227.631L240 32.3489H233.068L226.635 15.2683C226.453 14.7548 226.227 14.1206 225.955 13.3654C225.713 12.6103 225.457 11.8099 225.185 10.9642C224.913 10.1185 224.656 9.31806 224.415 8.56295C224.203 7.77763 224.022 7.14334 223.871 6.66007L225.094 6.61476C224.913 7.27926 224.701 7.98906 224.46 8.74417C224.248 9.46908 224.007 10.2242 223.735 11.0095C223.493 11.7948 223.237 12.5499 222.965 13.2748C222.723 13.9997 222.481 14.6944 222.24 15.3589L215.852 32.3489H209.101ZM214.9 25.6888L217.165 20.1614H231.618L233.929 25.6888H214.9Z" fill="#EEB50C"/>
</svg>
