<svg width="169" height="24" viewBox="0 0 169 24" fill="none" xmlns="http://www.w3.org/2000/svg">
<path d="M146.617 23.1823L155.353 0.94475H159.61L168.283 23.1823H163.422L158.911 11.2058C158.784 10.8458 158.625 10.401 158.434 9.87154C158.265 9.34208 158.085 8.78085 157.894 8.18784C157.704 7.59484 157.524 7.03361 157.354 6.50414C157.206 5.9535 157.079 5.50875 156.973 5.16989L157.831 5.13812C157.704 5.60405 157.556 6.10175 157.386 6.63121C157.238 7.1395 157.068 7.66897 156.878 8.21961C156.708 8.77026 156.528 9.29972 156.338 9.80801C156.168 10.3163 155.999 10.8034 155.829 11.2693L151.35 23.1823H146.617ZM150.683 18.5124L152.271 14.6367H162.405L164.026 18.5124H150.683Z" fill="#101010"/>
<path d="M131.867 23.1823V19.0843H135.584V5.04282H131.867V0.94475H144.034V5.04282H140.349V19.0843H144.034V23.1823H131.867Z" fill="#101010"/>
<path d="M110.164 23.1823V0.94475H120.012C121.41 0.94475 122.659 1.25184 123.761 1.86602C124.883 2.4802 125.773 3.32735 126.429 4.40746C127.086 5.46639 127.414 6.68416 127.414 8.06077C127.414 9.39503 127.086 10.6022 126.429 11.6823C125.773 12.7624 124.883 13.6202 123.761 14.2555C122.659 14.8909 121.41 15.2086 120.012 15.2086H114.739V23.1823H110.164ZM122.808 23.1823L117.153 13.1119L122.014 12.3177L128.304 23.2141L122.808 23.1823ZM114.739 11.3011H119.822C120.393 11.3011 120.891 11.174 121.315 10.9199C121.759 10.6446 122.098 10.2739 122.331 9.80801C122.585 9.34208 122.712 8.81261 122.712 8.21961C122.712 7.60543 122.564 7.06538 122.268 6.59945C121.971 6.11234 121.558 5.74171 121.029 5.48757C120.499 5.21224 119.885 5.07458 119.186 5.07458H114.739V11.3011Z" fill="#101010"/>
<path d="M94.5729 23.5C92.9422 23.5 91.4279 23.2141 90.0301 22.6423C88.6535 22.0704 87.4569 21.2762 86.4403 20.2597C85.4449 19.2219 84.6613 18.0041 84.0895 16.6064C83.5389 15.2086 83.2635 13.6731 83.2635 12C83.2635 10.3481 83.5389 8.8232 84.0895 7.42541C84.6613 6.02762 85.4449 4.80985 86.4403 3.7721C87.4569 2.73435 88.6535 1.92956 90.0301 1.35773C91.4279 0.785911 92.9422 0.5 94.5729 0.5C96.2037 0.5 97.6968 0.785911 99.0522 1.35773C100.429 1.92956 101.625 2.73435 102.642 3.7721C103.659 4.80985 104.442 6.03821 104.993 7.45718C105.565 8.85497 105.851 10.3692 105.851 12C105.851 13.6519 105.565 15.1768 104.993 16.5746C104.442 17.9724 103.659 19.1901 102.642 20.2279C101.625 21.2657 100.429 22.0704 99.0522 22.6423C97.6968 23.2141 96.2037 23.5 94.5729 23.5ZM94.5729 18.9889C95.5048 18.9889 96.3625 18.8195 97.1461 18.4807C97.9298 18.1206 98.6075 17.6335 99.1793 17.0193C99.7723 16.384 100.228 15.6427 100.545 14.7956C100.863 13.9484 101.022 13.0166 101.022 12C101.022 11.0046 100.863 10.0833 100.545 9.23619C100.228 8.38904 99.7723 7.64779 99.1793 7.01243C98.6075 6.37707 97.9298 5.88996 97.1461 5.55111C96.3625 5.19107 95.5048 5.01105 94.5729 5.01105C93.6411 5.01105 92.7728 5.19107 91.968 5.55111C91.1844 5.88996 90.496 6.37707 89.903 7.01243C89.3312 7.62661 88.8865 8.36786 88.5688 9.23619C88.2511 10.0833 88.0923 11.0152 88.0923 12.0318C88.0923 13.366 88.3676 14.5626 88.9182 15.6215C89.4901 16.6593 90.2525 17.4853 91.2055 18.0994C92.1798 18.6924 93.3022 18.9889 94.5729 18.9889Z" fill="#101010"/>
<path d="M70.3139 23.1823V5.23342H63.8968V0.94475H81.7504V5.23342H75.0791V23.1823H70.3139Z" fill="#101010"/>
<path d="M52.8777 23.5C50.8022 23.5 49.0232 23.1294 47.5407 22.3881C46.0794 21.6257 44.8193 20.5244 43.7603 19.0843L46.7465 15.7168C47.7843 17.157 48.8114 18.1418 49.828 18.6713C50.8658 19.1796 51.9777 19.4337 53.1637 19.4337C53.8202 19.4337 54.4026 19.3384 54.9109 19.1478C55.4404 18.9572 55.8533 18.6924 56.1498 18.3536C56.4675 18.0147 56.6264 17.6229 56.6264 17.1782C56.6264 16.8393 56.5522 16.5322 56.404 16.2569C56.2557 15.9604 56.044 15.7063 55.7686 15.4945C55.4933 15.2615 55.165 15.0603 54.7838 14.8909C54.4026 14.7003 53.979 14.5414 53.5131 14.4144C53.0472 14.2873 52.5389 14.1708 51.9882 14.0649C50.8022 13.8108 49.7645 13.4825 48.875 13.0801C47.9855 12.6777 47.2442 12.1906 46.6512 11.6188C46.0582 11.047 45.6135 10.3904 45.317 9.64917C45.0417 8.88674 44.904 8.03959 44.904 7.10773C44.904 5.79466 45.2746 4.65101 46.0159 3.6768C46.7571 2.6814 47.7419 1.90838 48.9703 1.35773C50.1987 0.785911 51.5541 0.5 53.0366 0.5C55.0486 0.5 56.7005 0.838858 57.9924 1.51657C59.3055 2.19429 60.3538 3.14733 61.1374 4.37569L58.0877 7.36188C57.4312 6.4512 56.6793 5.76289 55.8322 5.29696C54.985 4.83103 54.0743 4.59807 53.1001 4.59807C52.4224 4.59807 51.8188 4.69337 51.2893 4.88398C50.7811 5.05341 50.3893 5.31814 50.1139 5.67818C49.8386 6.01703 49.701 6.41943 49.701 6.88536C49.701 7.26657 49.7963 7.60543 49.9869 7.90193C50.1775 8.19843 50.4422 8.46317 50.7811 8.69613C51.1411 8.90792 51.5753 9.09853 52.0835 9.26795C52.5918 9.43738 53.1531 9.57505 53.7673 9.68094C54.9321 9.9139 55.9804 10.2316 56.9123 10.634C57.8441 11.0152 58.6383 11.4811 59.2949 12.0318C59.9726 12.5824 60.4915 13.2178 60.8515 13.9378C61.2115 14.6579 61.3916 15.4627 61.3916 16.3522C61.3916 17.8559 61.0315 19.1372 60.3115 20.1961C59.5914 21.2551 58.596 22.0704 57.3253 22.6423C56.0545 23.2141 54.572 23.5 52.8777 23.5Z" fill="#101010"/>
<path d="M25.5012 23.1823V0.94475H40.4957V5.13812H30.1711V18.9889H40.7181V23.1823H25.5012ZM27.725 13.8743V9.80801H38.9708V13.8743H27.725Z" fill="#101010"/>
<path d="M0 23.1823V0.94475H4.25691L16.5829 17.5912H15.7251C15.5769 16.511 15.4498 15.4415 15.3439 14.3826C15.238 13.3025 15.1639 12.1588 15.1215 10.9517C15.1004 9.74447 15.0898 8.39963 15.0898 6.91713V0.94475H19.7279V23.1823H15.4075L2.85912 6.44061H4.00276C4.15101 7.8384 4.26749 8.99263 4.35221 9.90331C4.43692 10.814 4.50046 11.5764 4.54282 12.1906C4.58518 12.7836 4.61694 13.3131 4.63812 13.779C4.6593 14.2449 4.66989 14.732 4.66989 15.2403V23.1823H0Z" fill="#101010"/>
</svg>
