<svg width="24" height="24" viewBox="0 0 24 24" fill="none" xmlns="http://www.w3.org/2000/svg">
<path d="M10.757 12L15.707 16.95C15.8026 17.0422 15.8787 17.1526 15.9311 17.2746C15.9836 17.3966 16.0111 17.5278 16.0123 17.6606C16.0135 17.7934 15.9882 17.9251 15.9379 18.048C15.8876 18.1708 15.8133 18.2825 15.7194 18.3764C15.6256 18.4703 15.5139 18.5445 15.391 18.5948C15.2681 18.6451 15.1364 18.6704 15.0036 18.6692C14.8709 18.6681 14.7396 18.6405 14.6176 18.5881C14.4956 18.5357 14.3853 18.4595 14.293 18.364L8.63605 12.707C8.44858 12.5195 8.34326 12.2652 8.34326 12C8.34326 11.7348 8.44858 11.4805 8.63605 11.293L14.293 5.636C14.4817 5.45384 14.7343 5.35305 14.9964 5.35532C15.2586 5.3576 15.5095 5.46277 15.6949 5.64818C15.8803 5.83359 15.9854 6.0844 15.9877 6.3466C15.99 6.60879 15.8892 6.8614 15.707 7.05L10.757 12Z" fill="#101010"/>
</svg>
